<?xml version="1.0" standalone="no"?>
<!DOCTYPE svg PUBLIC "-//W3C//DTD SVG 20010904//EN"
 "http://www.w3.org/TR/2001/REC-SVG-20010904/DTD/svg10.dtd">
<svg version="1.0" xmlns="http://www.w3.org/2000/svg"
 width="310.000000pt" height="310.000000pt" viewBox="0 0 310.000000 310.000000"
 preserveAspectRatio="xMidYMid meet">
<metadata>
Created by potrace 1.14, written by Peter Selinger 2001-2017
</metadata>
<g transform="translate(0.000000,310.000000) scale(0.100000,-0.100000)"
fill="#000000" stroke="none">
<path d="M1315 3080 c-126 -22 -211 -43 -300 -77 -476 -180 -821 -557 -959
-1051 -14 -49 -28 -109 -31 -133 -3 -24 -9 -68 -14 -98 -11 -72 -6 -318 9
-411 74 -461 348 -861 750 -1097 123 -72 307 -146 415 -168 184 -38 385 -51
520 -35 125 15 139 18 223 40 150 38 301 101 427 177 139 84 320 244 409 363
22 30 44 57 47 60 31 26 149 251 192 365 27 71 62 202 72 265 2 19 9 62 14 95
13 87 6 337 -13 435 -62 332 -203 605 -432 834 -234 234 -521 380 -859 437
-113 19 -355 19 -470 -1z"/>
</g>
</svg>
